<?xml version="1.0" standalone="no"?>
<!DOCTYPE svg PUBLIC "-//W3C//DTD SVG 20010904//EN"
 "http://www.w3.org/TR/2001/REC-SVG-20010904/DTD/svg10.dtd">
<svg version="1.0" xmlns="http://www.w3.org/2000/svg"
 width="1280.000000pt" height="640.000000pt" viewBox="0 0 1280.000000 640.000000"
 preserveAspectRatio="xMidYMid meet">
<g transform="translate(0.000000,640.000000) scale(0.100000,-0.100000)"
fill="#000000" stroke="none">
<path d="M883 5404 c-362 -79 -665 -402 -816 -869 -19 -61 -38 -127 -42 -148
-4 -20 -11 -40 -16 -43 -19 -11 0 -247 32 -399 45 -212 142 -380 293 -507 121
-102 336 -196 531 -232 44 -8 120 -23 169 -32 60 -11 112 -15 161 -11 131 11
302 78 440 170 82 55 210 186 268 275 26 39 50 72 52 72 3 0 159 -68 347 -151
673 -297 1350 -588 1893 -812 l250 -104 6 -69 c3 -38 12 -82 21 -99 9 -17 19
-72 22 -125 28 -373 210 -720 472 -901 72 -49 203 -107 300 -131 79 -20 113
-23 294 -22 225 0 337 14 482 60 256 81 462 254 620 519 37 62 80 220 112 405
68 397 -16 691 -282 995 -123 141 -226 221 -379 299 -197 98 -384 138 -558
116 -223 -28 -424 -133 -692 -364 -61 -53 -118 -96 -126 -96 -18 0 -529 207
-902 365 -603 256 -1603 699 -1621 718 -7 7 -26 86 -44 177 -17 91 -43 201
-57 245 -83 263 -245 448 -501 571 -100 47 -280 111 -368 129 -89 18 -275 18
-361 -1z"/>
<path d="M10738 5046 c-37 -18 -89 -50 -117 -70 -78 -58 -187 -181 -220 -249
-34 -70 -64 -207 -82 -377 -6 -63 -16 -120 -21 -126 -4 -7 -21 -14 -37 -17
-16 -4 -44 -19 -63 -35 -51 -44 -155 -106 -238 -142 -104 -45 -237 -122 -328
-189 -308 -228 -489 -529 -598 -991 -40 -169 -44 -276 -19 -480 97 -788 570
-1260 1375 -1371 109 -15 424 -15 515 0 230 39 542 190 738 358 188 160 363
426 472 718 64 170 75 244 84 571 4 160 6 304 4 320 -4 27 0 31 50 56 30 15
88 48 128 74 244 155 346 278 399 476 22 86 24 119 11 181 -5 23 -15 74 -21
114 -39 244 -292 515 -722 774 -397 239 -930 439 -1169 439 -64 0 -83 -5 -141
-34z m354 -370 c262 -86 481 -198 838 -424 318 -203 429 -315 486 -496 l25
-79 -40 -66 c-74 -125 -115 -167 -214 -221 -51 -27 -97 -50 -104 -50 -20 0
-156 129 -236 225 -106 128 -269 282 -369 348 -46 31 -132 79 -189 106 -98 47
-318 121 -358 121 -11 0 -41 15 -68 34 -28 19 -82 50 -121 70 -82 42 -82 39
-56 164 18 87 52 177 85 223 51 72 184 90 321 45z"/>
</g>
</svg>
